<mxfile host="65bd71144e">
    <diagram name="Page-1" id="rYnyoEy-ytGK6FOINYdk">
        <mxGraphModel dx="648" dy="318" grid="1" gridSize="10" guides="1" tooltips="1" connect="1" arrows="1" fold="1" page="1" pageScale="1" pageWidth="850" pageHeight="1100" math="0" shadow="0">
            <root>
                <mxCell id="0"/>
                <mxCell id="1" parent="0"/>
                <mxCell id="jCIDf7l5XhrsrI3fLUqk-1" style="rounded=0;orthogonalLoop=1;jettySize=auto;html=1;" parent="1" source="jCIDf7l5XhrsrI3fLUqk-2" target="jCIDf7l5XhrsrI3fLUqk-6" edge="1">
                    <mxGeometry relative="1" as="geometry"/>
                </mxCell>
                <mxCell id="jCIDf7l5XhrsrI3fLUqk-2" value="Server" style="ellipse;whiteSpace=wrap;html=1;" parent="1" vertex="1">
                    <mxGeometry x="160" y="120" width="70" height="50" as="geometry"/>
                </mxCell>
                <mxCell id="19" style="edgeStyle=none;html=1;" edge="1" parent="1" source="12" target="13">
                    <mxGeometry relative="1" as="geometry"/>
                </mxCell>
                <mxCell id="20" style="html=1;" edge="1" parent="1" source="13" target="14">
                    <mxGeometry relative="1" as="geometry"/>
                </mxCell>
                <mxCell id="jCIDf7l5XhrsrI3fLUqk-6" value="Client" style="ellipse;whiteSpace=wrap;html=1;" parent="1" vertex="1">
                    <mxGeometry x="320" y="130" width="80" height="50" as="geometry"/>
                </mxCell>
                <mxCell id="32" style="edgeStyle=none;html=1;" edge="1" parent="1" source="2" target="24">
                    <mxGeometry relative="1" as="geometry"/>
                </mxCell>
                <mxCell id="2" value="Board" style="ellipse;whiteSpace=wrap;html=1;" vertex="1" parent="1">
                    <mxGeometry x="200" y="340" width="60" height="30" as="geometry"/>
                </mxCell>
                <mxCell id="3" value="FigureColor" style="ellipse;whiteSpace=wrap;html=1;" vertex="1" parent="1">
                    <mxGeometry x="20" y="480" width="90" height="30" as="geometry"/>
                </mxCell>
                <mxCell id="4" value="FigureImages" style="ellipse;whiteSpace=wrap;html=1;" vertex="1" parent="1">
                    <mxGeometry x="10" y="430" width="110" height="30" as="geometry"/>
                </mxCell>
                <mxCell id="5" value="FigureType" style="ellipse;whiteSpace=wrap;html=1;" vertex="1" parent="1">
                    <mxGeometry x="30" y="530" width="90" height="30" as="geometry"/>
                </mxCell>
                <mxCell id="12" value="BoardView" style="ellipse;whiteSpace=wrap;html=1;" vertex="1" parent="1">
                    <mxGeometry x="285" y="340" width="100" height="30" as="geometry"/>
                </mxCell>
                <mxCell id="13" value="FieldView" style="ellipse;whiteSpace=wrap;html=1;" vertex="1" parent="1">
                    <mxGeometry x="350" y="410" width="100" height="30" as="geometry"/>
                </mxCell>
                <mxCell id="21" style="edgeStyle=none;html=1;" edge="1" parent="1" source="14" target="15">
                    <mxGeometry relative="1" as="geometry"/>
                </mxCell>
                <mxCell id="22" style="edgeStyle=none;html=1;" edge="1" parent="1" source="14" target="16">
                    <mxGeometry relative="1" as="geometry"/>
                </mxCell>
                <mxCell id="14" value="FigureView" style="ellipse;whiteSpace=wrap;html=1;" vertex="1" parent="1">
                    <mxGeometry x="290" y="500" width="80" height="30" as="geometry"/>
                </mxCell>
                <mxCell id="15" value="FigureWhiteView" style="ellipse;whiteSpace=wrap;html=1;" vertex="1" parent="1">
                    <mxGeometry x="400" y="490" width="160" height="30" as="geometry"/>
                </mxCell>
                <mxCell id="16" value="FigureBlackView" style="ellipse;whiteSpace=wrap;html=1;" vertex="1" parent="1">
                    <mxGeometry x="400" y="530" width="140" height="30" as="geometry"/>
                </mxCell>
                <mxCell id="26" style="edgeStyle=none;html=1;" edge="1" parent="1" source="24" target="4">
                    <mxGeometry relative="1" as="geometry"/>
                </mxCell>
                <mxCell id="27" style="edgeStyle=none;html=1;" edge="1" parent="1" source="24" target="3">
                    <mxGeometry relative="1" as="geometry">
                        <mxPoint x="220" y="530" as="sourcePoint"/>
                    </mxGeometry>
                </mxCell>
                <mxCell id="29" style="edgeStyle=none;html=1;" edge="1" parent="1" source="24" target="5">
                    <mxGeometry relative="1" as="geometry"/>
                </mxCell>
                <mxCell id="34" style="edgeStyle=none;html=1;" edge="1" parent="1" source="24" target="33">
                    <mxGeometry relative="1" as="geometry"/>
                </mxCell>
                <mxCell id="24" value="Figure" style="ellipse;whiteSpace=wrap;html=1;" vertex="1" parent="1">
                    <mxGeometry x="190" y="500" width="60" height="30" as="geometry"/>
                </mxCell>
                <mxCell id="33" value="position: int[x][y]" style="ellipse;whiteSpace=wrap;html=1;" vertex="1" parent="1">
                    <mxGeometry x="30" y="640" width="110" height="30" as="geometry"/>
                </mxCell>
            </root>
        </mxGraphModel>
    </diagram>
</mxfile>